<svg width="16" height="16" viewBox="0 0 16 16" fill="none" xmlns="http://www.w3.org/2000/svg">
<path d="M10.7933 1.33334H5.20667C2.78 1.33334 1.33333 2.78001 1.33333 5.20668V10.7867C1.33333 13.22 2.78 14.6667 5.20667 14.6667H10.7867C13.2133 14.6667 14.66 13.22 14.66 10.7933V5.20668C14.6667 2.78001 13.22 1.33334 10.7933 1.33334ZM4.5 9.42668C4.5 9.70001 4.27333 9.92668 4 9.92668C3.72667 9.92668 3.5 9.70001 3.5 9.42668V6.57334C3.5 6.30001 3.72667 6.07334 4 6.07334C4.27333 6.07334 4.5 6.30001 4.5 6.57334V9.42668ZM6.5 10.38C6.5 10.6533 6.27333 10.88 6 10.88C5.72667 10.88 5.5 10.6533 5.5 10.38V5.62001C5.5 5.34668 5.72667 5.12001 6 5.12001C6.27333 5.12001 6.5 5.34668 6.5 5.62001V10.38ZM8.5 11.3333C8.5 11.6067 8.27333 11.8333 8 11.8333C7.72667 11.8333 7.5 11.6067 7.5 11.3333V4.66668C7.5 4.39334 7.72667 4.16668 8 4.16668C8.27333 4.16668 8.5 4.39334 8.5 4.66668V11.3333ZM10.5 10.38C10.5 10.6533 10.2733 10.88 10 10.88C9.72667 10.88 9.5 10.6533 9.5 10.38V5.62001C9.5 5.34668 9.72667 5.12001 10 5.12001C10.2733 5.12001 10.5 5.34668 10.5 5.62001V10.38ZM12.5 9.42668C12.5 9.70001 12.2733 9.92668 12 9.92668C11.7267 9.92668 11.5 9.70001 11.5 9.42668V6.57334C11.5 6.30001 11.7267 6.07334 12 6.07334C12.2733 6.07334 12.5 6.30001 12.5 6.57334V9.42668Z" fill="#00A8FF"/>
</svg>
