<svg width="16" height="16" viewBox="0 0 16 16" fill="none" xmlns="http://www.w3.org/2000/svg">
<path d="M14.06 4.65333C13.4933 4.02666 12.5467 3.71333 11.1733 3.71333H11.0133V3.68666C11.0133 2.56666 11.0133 1.17999 8.50667 1.17999H7.49334C4.98667 1.17999 4.98667 2.57333 4.98667 3.68666V3.71999H4.82667C3.44667 3.71999 2.50667 4.03333 1.94 4.65999C1.28 5.39333 1.3 6.37999 1.36667 7.05333L1.37334 7.09999L1.41746 7.56327C1.43172 7.71305 1.51247 7.84849 1.63863 7.93047C1.79899 8.03467 2.02021 8.17566 2.16 8.25333C2.25334 8.31333 2.35334 8.36666 2.45334 8.41999C3.59334 9.04666 4.84667 9.46666 6.12 9.67333C6.18 10.3 6.45334 11.0333 7.91334 11.0333C9.37334 11.0333 9.66 10.3067 9.70667 9.65999C11.0667 9.43999 12.38 8.96666 13.5667 8.27333C13.6067 8.25333 13.6333 8.23333 13.6667 8.21333C13.9104 8.07555 14.1626 7.90829 14.3964 7.74168C14.5099 7.66081 14.5821 7.53458 14.5975 7.39607L14.6 7.37333L14.6333 7.05999C14.64 7.01999 14.64 6.98666 14.6467 6.93999C14.7 6.26666 14.6867 5.34666 14.06 4.65333ZM8.72667 9.21999C8.72667 9.92666 8.72667 10.0333 7.90667 10.0333C7.08667 10.0333 7.08667 9.90666 7.08667 9.22666V8.38666H8.72667V9.21999ZM5.94 3.71333V3.68666C5.94 2.55333 5.94 2.13333 7.49334 2.13333H8.50667C10.06 2.13333 10.06 2.55999 10.06 3.68666V3.71999H5.94V3.71333Z" fill="white"/>
<path d="M13.6456 9.28353C14.0003 9.1176 14.4077 9.3985 14.3723 9.78848L14.16 12.1267C14.02 13.46 13.4733 14.82 10.54 14.82H5.46C2.52666 14.82 1.98 13.46 1.84 12.1333L1.63929 9.92549C1.60424 9.54003 2.00217 9.25949 2.3558 9.41682C3.11553 9.75485 4.25602 10.2378 5.0297 10.4539C5.19329 10.4996 5.32583 10.6181 5.40392 10.7689C5.82478 11.5817 6.68645 12.0133 7.91333 12.0133C9.12818 12.0133 9.99989 11.565 10.4226 10.7491C10.5008 10.5982 10.6338 10.4797 10.7974 10.4336C11.6223 10.2012 12.845 9.658 13.6456 9.28353Z" fill="white"/>
</svg>
