<svg width="16" height="16" viewBox="0 0 16 16" fill="none" xmlns="http://www.w3.org/2000/svg">
<path d="M7.99998 1.33334C4.32665 1.33334 1.33331 4.32668 1.33331 8.00001C1.33331 11.6733 4.32665 14.6667 7.99998 14.6667C11.6733 14.6667 14.6666 11.6733 14.6666 8.00001C14.6666 4.32668 11.6733 1.33334 7.99998 1.33334ZM10.9 10.38C10.8066 10.54 10.64 10.6267 10.4666 10.6267C10.38 10.6267 10.2933 10.6067 10.2133 10.5533L8.14665 9.32001C7.63331 9.01334 7.25331 8.34001 7.25331 7.74668V5.01334C7.25331 4.74001 7.47998 4.51334 7.75331 4.51334C8.02665 4.51334 8.25331 4.74001 8.25331 5.01334V7.74668C8.25331 7.98668 8.45331 8.34001 8.65998 8.46001L10.7266 9.69334C10.9666 9.83334 11.0466 10.14 10.9 10.38Z" fill="white"/>
</svg>
