<svg width="17" height="16" viewBox="0 0 17 16" fill="none" xmlns="http://www.w3.org/2000/svg">
<path fill-rule="evenodd" clip-rule="evenodd" d="M6.6461 0.0904832C3.37588 0.638699 0.637739 3.39854 0.105032 6.68339C-0.685334 11.5571 3.08607 16 8.01345 16C12.9398 16 16.7347 11.5248 15.9192 6.67708C15.358 3.34032 12.6404 0.624253 9.32508 0.0866058C8.60338 -0.0304045 7.35648 -0.0285909 6.6461 0.0904832ZM9.54565 2.11512C9.82082 2.18929 10.3063 2.3729 10.6245 2.52318C11.2274 2.80792 11.3783 2.9744 11.3022 3.2709C11.2574 3.44557 3.378 11.3096 3.2478 11.3096C2.95061 11.3096 2.82572 11.1849 2.54536 10.6086C2.08351 9.65906 1.98651 9.20559 1.98651 7.99502C1.98651 7.12611 2.00822 6.88414 2.12385 6.46282C2.74955 4.1829 4.53966 2.50599 6.8648 2.02175C7.49475 1.89054 8.89268 1.93926 9.54565 2.11512ZM13.0411 4.74044C13.2445 4.8178 13.7033 5.7495 13.9047 6.49409C14.0279 6.94969 14.0478 7.16876 14.0439 8.02629C14.0386 9.18089 13.9363 9.67081 13.5179 10.546C12.8683 11.9049 12.0033 12.7849 10.6714 13.4418C9.70675 13.9176 9.24077 14.021 8.04472 14.025C6.8628 14.0288 6.34485 13.9185 5.39989 13.4615C4.79664 13.1697 4.65036 13.0089 4.72465 12.7191C4.76949 12.5445 12.6489 4.68046 12.7791 4.68046C12.8364 4.68046 12.9543 4.70748 13.0411 4.74044Z" fill="#FF2121"/>
</svg>
