<svg width="16" height="16" viewBox="0 0 16 16" fill="none" xmlns="http://www.w3.org/2000/svg">
<path fill-rule="evenodd" clip-rule="evenodd" d="M6.71088 0.0878722C4.13553 0.547687 1.88181 2.24777 0.758819 4.57768C0.43541 5.24867 0.219465 5.94062 0.0844675 6.73871C-0.108005 7.87608 0.046785 9.82255 0.363597 10.2492C0.562858 10.5177 0.797517 10.4874 1.8367 10.0592C2.35316 9.84645 2.82305 9.62083 2.88084 9.55784C3.00924 9.41791 3.01286 9.31151 2.91427 8.57597C2.58617 6.12846 4.21292 3.74825 6.69686 3.04142C7.40877 2.83882 8.75075 2.83882 9.46265 3.04142C10.4015 3.30858 11.2303 3.81112 11.9049 4.52214C12.1214 4.75026 12.2984 4.96306 12.2984 4.99496C12.2984 5.02693 12.2342 5.08573 12.1557 5.12563C11.7171 5.34863 11.5927 5.72394 11.8717 5.9824C12.0546 6.15191 15.1181 7.62206 15.2883 7.62206C15.4766 7.62206 15.6598 7.5074 15.7192 7.3524C15.7481 7.27709 15.8231 6.40625 15.8859 5.41712L16 3.61883L15.851 3.46239C15.6677 3.27005 15.3866 3.25798 15.1214 3.43112C14.8675 3.59694 14.8271 3.58956 14.6689 3.34855C14.4106 2.9551 13.767 2.26722 13.3036 1.88935C12.0997 0.90767 10.8062 0.315747 9.35944 0.0843693C8.64722 -0.0295367 7.35884 -0.0278478 6.71088 0.0878722ZM2.12078 10.9231C1.21323 11.3009 1.10171 11.3639 1.02913 11.5402C0.957002 11.7155 0.964995 11.7692 1.10367 12.0406C1.51932 12.8542 2.5521 13.9414 3.52493 14.5896C4.18025 15.0262 4.38535 15.0836 4.61214 14.8937C4.76217 14.768 5.5105 13.013 5.5105 12.7868C5.5105 12.539 5.44611 12.4438 5.13811 12.2363C4.70222 11.9428 4.13661 11.3943 3.82094 10.9592C3.5446 10.5783 3.44233 10.498 3.23736 10.5009C3.17919 10.5018 2.67669 10.6918 2.12078 10.9231ZM12.6942 10.5411C12.6501 10.5586 12.5233 10.7042 12.4123 10.8645C12.1344 11.2662 11.5061 11.9051 11.1248 12.1737C10.7244 12.4557 10.649 12.5474 10.649 12.7527C10.649 12.9888 11.3948 14.7629 11.549 14.8937C11.7581 15.071 11.9869 15.0246 12.4741 14.706C13.4746 14.0516 14.2324 13.3106 14.8438 12.3885C15.2056 11.843 15.2387 11.7535 15.1575 11.5428C15.0834 11.3505 14.9992 11.3051 13.8723 10.8501C13.0408 10.5143 12.8726 10.4702 12.6942 10.5411ZM6.51105 13.1365C6.3489 13.2833 5.57393 15.0321 5.57393 15.2513C5.57393 15.3119 5.63128 15.4334 5.70138 15.5213C5.9795 15.8699 7.89896 16.113 9.0562 15.9461C10.1401 15.7899 10.5856 15.5964 10.5856 15.2817C10.5856 15.2061 10.4059 14.7134 10.1862 14.1869C9.67949 12.9722 9.66166 12.9566 8.91581 13.066C8.40989 13.1402 7.53317 13.1224 6.9005 13.0251C6.71925 12.9973 6.63983 13.02 6.51105 13.1365Z" fill="#00A8FF"/>
</svg>
