<svg width="16" height="16" viewBox="0 0 16 16" fill="none" xmlns="http://www.w3.org/2000/svg">
<path d="M11.4 1.33333H8.60003C6.67933 1.33333 5.7117 1.97026 5.42926 3.4926C5.32767 4.04016 5.79502 4.49999 6.35193 4.49999H7.40003C10.2 4.49999 11.5 5.79999 11.5 8.59999V9.64809C11.5 10.205 11.9599 10.6724 12.5074 10.5708C14.0298 10.2883 14.6667 9.3207 14.6667 7.4V4.6C14.6667 2.26666 13.7334 1.33333 11.4 1.33333Z" fill="#BDFF00"/>
<path d="M7.39998 5.33333H4.59998C2.26665 5.33333 1.33331 6.26666 1.33331 8.59999V11.4C1.33331 13.7333 2.26665 14.6667 4.59998 14.6667H7.39998C9.73331 14.6667 10.6666 13.7333 10.6666 11.4V8.59999C10.6666 6.26666 9.73331 5.33333 7.39998 5.33333ZM8.19331 9.09999L5.71998 11.5733C5.62665 11.6667 5.50665 11.7133 5.37998 11.7133C5.25331 11.7133 5.13331 11.6667 5.03998 11.5733L3.79998 10.3333C3.61331 10.1467 3.61331 9.84666 3.79998 9.66C3.98665 9.47333 4.28665 9.47333 4.47331 9.66L5.37331 10.56L7.51331 8.42C7.69998 8.23333 7.99998 8.23333 8.18665 8.42C8.37331 8.60666 8.37998 8.91333 8.19331 9.09999Z" fill="#BDFF00"/>
</svg>
