<svg width="16" height="16" viewBox="0 0 16 16" fill="none" xmlns="http://www.w3.org/2000/svg">
<path fill-rule="evenodd" clip-rule="evenodd" d="M7.45879 1.06063C7.09167 1.16216 6.69195 1.40913 6.45756 1.67933C6.20216 1.97375 1.13233 11.1964 1.05418 11.5087C0.825311 12.4235 1.34009 13.4352 2.24776 13.8546L2.56238 14H8.00502H13.4477L13.8077 13.8252C14.2433 13.6138 14.628 13.2263 14.8262 12.7996C15.0206 12.3809 15.0559 11.7971 14.9119 11.3848C14.7983 11.0593 9.8361 2.03781 9.60996 1.7455C9.42282 1.5036 9.01757 1.21652 8.71482 1.11137C8.35136 0.98519 7.81077 0.963351 7.45879 1.06063ZM8.36388 4.40753C8.46571 4.4552 8.60479 4.58262 8.67293 4.69063C8.79559 4.88513 8.79702 4.90934 8.81288 7.05798C8.82808 9.12137 8.82348 9.24081 8.72089 9.4696C8.4416 10.092 7.56615 10.092 7.28685 9.4696C7.18426 9.24081 7.17966 9.12137 7.19487 7.05798C7.21073 4.91209 7.21231 4.88485 7.33427 4.69149C7.55083 4.34817 7.98254 4.22911 8.36388 4.40753ZM8.36388 10.8782C8.73374 11.0513 8.89502 11.5079 8.72231 11.8929C8.44083 12.5204 7.56691 12.5204 7.28543 11.8929C6.98207 11.2167 7.68121 10.5588 8.36388 10.8782Z" fill="#FFD600"/>
</svg>
